<?xml version="1.0" encoding="utf-8"?>
<!-- Generator: Adobe Illustrator 19.0.0, SVG Export Plug-In . SVG Version: 6.00 Build 0)  -->
<svg version="1.1" id="Layer_1" xmlns="http://www.w3.org/2000/svg" xmlns:xlink="http://www.w3.org/1999/xlink" x="0px" y="0px"
	 viewBox="0 0 432 293.5" style="enable-background:new 0 0 432 293.5;" xml:space="preserve">
<style type="text/css">
	.st0{fill:none;}
	.st1{fill:#003E75;}
	.st2{fill:#00AEEF;}
	.st3{fill-rule:evenodd;clip-rule:evenodd;fill:#003E75;}
</style>
<g id="Layer_9">
	<rect class="st0" width="432" height="293.5"/>
</g>
<g id="Layer_8">
	<path class="st1" d="M41.6,166.7L41.6,166.7c2.4,0.2,5,0.4,7.8,0.4c6.6,0,11.9-1.6,15.9-4.7c4-3.2,5.9-7.4,5.9-12.7
		c0-5-1.6-8.8-4.9-11.3c-3.3-2.5-8.2-3.8-14.6-3.8c-3.7,0-7.1,0.2-10.1,0.5V166.7z M31.5,195.1c0.2-7.8,0.2-16.4,0.2-26
		c0-9.5,0-18.1-0.2-25.8c-0.2-5-0.3-8.5-0.4-10.4c-0.1-1.9-0.2-3.3-0.4-4.1c3,0.1,5.7,0.2,8,0.2c2.3,0,4.2,0,5.8-0.1
		c2.1-0.1,4-0.2,5.7-0.2c1.7,0,3.3-0.1,4.8-0.1c9.5,0,16.5,1.7,21,5c4.6,3.3,6.8,8.5,6.8,15.4c0,7.5-2.7,13.2-8.1,17.4
		c-5.4,4.1-13,6.2-22.8,6.2c-3.8,0-7.2-0.2-10.2-0.6c0,8.5,0,16.2,0.2,23.1c0.2,5.1,0.3,8.6,0.4,10.5c0.1,1.9,0.2,3.3,0.4,4
		c-1.8-0.2-3.7-0.3-6-0.3c-2.2,0-4.2,0.1-6,0.3c0.2-0.8,0.3-2.1,0.4-4.1C31.3,203.6,31.4,200.1,31.5,195.1z"/>
</g>
<g id="Layer_7">
	<path class="st1" d="M90.9,199.2c0.2-9.7,0.4-21,0.4-33.9L91,131.6c0-3.1-0.1-5.3-0.2-6.7c-0.1-1.4-0.3-2.5-0.5-3.4
		c1.6,0.3,3.4,0.4,5.5,0.4c2,0,3.8-0.1,5.4-0.4c-0.2,0.7-0.3,1.8-0.4,3.1c-0.1,1.4-0.2,3.7-0.3,7c-0.2,9.6-0.3,20.9-0.3,33.7l0.3,34
		c0,2.8,0.1,4.9,0.2,6.3c0.1,1.3,0.3,2.6,0.5,3.8c-1.6-0.2-3.4-0.3-5.5-0.3c-2,0-3.8,0.1-5.4,0.3c0.2-0.8,0.3-1.8,0.4-3.2
		C90.8,204.8,90.9,202.5,90.9,199.2"/>
</g>
<g id="Layer_6">
	<path class="st1" d="M143.2,197.6v-16.9l-11,2.1c-4.4,0.9-7.8,2.3-10,4.3c-2.2,2-3.3,4.5-3.3,7.5c0,3.2,0.9,5.6,2.7,7.3
		c1.8,1.7,4.4,2.6,7.7,2.6c3.7,0,6.9-0.9,9.6-2.6C140.5,200.7,142,199.3,143.2,197.6 M124.5,210.7c-4.9,0-8.8-1.4-11.8-4.2
		c-3-2.8-4.5-6.4-4.5-10.9c0-4.1,1.4-7.5,4.1-10.2c2.7-2.7,6.8-4.5,12-5.5l14.5-2.8c1.7-0.3,2.9-0.9,3.5-1.6
		c0.6-0.7,0.9-1.9,0.9-3.6v-0.8c0-4.8-1.2-8.4-3.5-10.9c-2.3-2.5-5.7-3.7-10.2-3.7c-3.6,0-6.7,0.8-9.2,2.3c-2.5,1.5-4.4,3.8-5.8,6.9
		l-1.3,0l-0.1-6.7c2.4-2,5.3-3.6,8.6-4.9c3.3-1.2,6.4-1.8,9.5-1.8c6.7,0,11.8,1.6,15.4,4.9c3.6,3.3,5.4,7.9,5.4,14v29.8
		c0,1.9,0.3,3.3,0.9,4.3c0.6,1,1.5,1.4,2.6,1.4c0.8,0,1.5-0.1,2.1-0.2l0.6,2.6c-2.2,1.3-5,1.9-8.4,1.8c-2.3,0-4-1-5.2-3
		c-0.7-1.2-1.2-2.8-1.6-4.7c-1.2,1.3-2.7,2.4-4.3,3.4C134.4,209.4,129.6,210.7,124.5,210.7z"/>
</g>
<g id="Layer_5">
	<path class="st1" d="M166,199.5c0.2-5.3,0.2-11.4,0.2-18.1c0-6.7,0-12.6-0.2-17.9c-0.2-3.4-0.3-5.7-0.4-7.1c-0.1-1.4-0.2-2.4-0.4-3
		c1.5,0.3,3.3,0.4,5.3,0.4c2,0,3.8-0.1,5.3-0.4c-0.2,0.4-0.4,0.9-0.4,1.7c-0.1,0.8-0.2,2.2-0.4,4.3l-0.2,3.4c1-1.5,2.1-2.8,3.3-4.1
		c4.2-4.3,9.4-6.5,15.6-6.5c5.8,0,10.4,1.8,13.8,5.4c3.4,3.6,5.1,8.4,5.1,14.6v27.3c0,1.8,0.1,3.4,0.2,4.7c0.1,1.3,0.3,3.1,0.6,5.4
		c-1.6-0.2-3.4-0.3-5.4-0.3c-2,0-3.9,0.1-5.5,0.3c0.2-1,0.4-2.1,0.5-3.5c0.1-1.4,0.2-3.6,0.3-6.6c0.2-5.4,0.2-11.4,0.2-18v-6.5
		c0-5.1-1.2-9.1-3.6-12c-2.4-2.9-5.8-4.3-10-4.3c-4.8,0-8.5,1.6-10.9,4.7c-2.4,3.1-3.6,7.9-3.6,14.1v4c0,6.8,0.1,12.8,0.2,18.1
		c0.1,3.1,0.2,5.3,0.3,6.6c0.1,1.4,0.3,2.5,0.5,3.5c-1.6-0.2-3.4-0.3-5.5-0.3c-2,0-3.8,0.1-5.4,0.3c0.2-1,0.4-2.1,0.5-3.5
		C165.8,204.8,165.9,202.6,166,199.5"/>
</g>
<g id="Layer_4">
	<path class="st1" d="M283.4,200.7c0.2-7.8,0.2-16.4,0.2-26c0-9.7,0-18.4-0.2-26c-0.2-5-0.3-8.5-0.4-10.4c-0.1-1.9-0.2-3.3-0.4-4.1
		c1.8,0.2,3.7,0.3,6,0.3c2.2,0,4.2-0.1,6-0.3c-0.2,0.7-0.3,2.1-0.4,4c-0.1,1.9-0.2,5.4-0.4,10.5c-0.2,5.9-0.2,12.4-0.2,19.3
		c7,0.6,14.9,0.9,23.8,0.9c8.9,0,16.9-0.3,23.9-0.9l-0.2-19.3c-0.2-5-0.3-8.5-0.4-10.5c-0.1-1.9-0.2-3.3-0.4-4
		c1.8,0.2,3.7,0.3,6,0.3c2.2,0,4.2-0.1,6-0.3c-0.2,0.8-0.3,2.1-0.4,4.1c-0.1,1.9-0.2,5.4-0.4,10.4c-0.2,7.7-0.2,16.4-0.2,26
		c0,9.6,0,18.3,0.2,26c0.2,5,0.3,8.5,0.4,10.4c0.1,1.9,0.2,3.3,0.4,4.1c-1.8-0.2-3.7-0.3-6-0.3c-2.2,0-4.2,0.1-6,0.3
		c0.2-0.7,0.3-2.1,0.4-4c0.1-1.9,0.2-5.4,0.4-10.5c0.2-7.4,0.3-15.7,0.2-24.9c-6.9-0.6-14.9-1-23.8-0.9c-8.9,0-16.9,0.3-23.8,0.9
		c-0.1,9.2-0.1,17.5,0.2,24.9c0.2,5,0.3,8.5,0.4,10.5c0.1,1.9,0.2,3.3,0.4,4c-1.8-0.2-3.7-0.3-6-0.3c-2.2,0-4.2,0.1-6,0.3
		c0.2-0.8,0.3-2.1,0.4-4.1C283.1,209.1,283.2,205.7,283.4,200.7"/>
</g>
<g id="Layer_3">
	<path class="st2" d="M267.3,137.6c1.6-3.8,3.1-7.5,4.4-11.1l-0.1,0.2c-2.4,3.3-5,6.7-7.6,10.5l0,0c-5.3,7.6-10.4,15.1-15.1,22.5
		c-4.7,7.5-9.1,14.8-13.2,22.1l0,0c-2.4,4.3-4.6,8.4-6.6,12.4c-2,3.9-3.7,7.6-5.3,11.1l0,0c-1,2.3-1.9,4.5-2.7,6.5
		c-0.8,2-1.4,3.9-2,5.6c-0.4,1.2-0.7,2.3-0.9,3.3c-0.2,1-0.4,1.9-0.5,2.7l0,0.1c-0.1,0.4-0.1,0.7-0.2,1.1c0,0.2,0,0.5,0,0.7l0.1,0
		l0,0c0.4-0.3,0.7-0.5,1.1-0.8c0.4-0.3,0.8-0.7,1.2-1c0.6-0.6,1.3-1.3,2-2.1h0c0.7-0.8,1.4-1.6,2.2-2.6l0,0c1.2-1.5,2.5-3.1,3.7-4.9
		c1.2-1.7,2.5-3.6,3.9-5.7l0,0c2.1-3.3,4.3-6.8,6.5-10.5c2.2-3.8,4.5-7.8,6.8-12.2c3.9-7.3,7.7-14.9,11.4-22.9
		C259.9,154.7,263.6,146.4,267.3,137.6L267.3,137.6z M295.5,168.2c2.4-1.3,11.7-7.6,14.1-9.5h0c4.9-3.7,9.6-7.9,14.2-12.8
		c4.5-4.8,8.9-10.2,13-16.2c1.9-2.7,3.7-5.5,5.3-8.2c1.6-2.8,3.1-5.6,4.5-8.4l0,0c1.5-3.2,2.9-6.3,3.9-9.2c1.1-2.9,1.9-5.8,2.5-8.6
		l0,0c0.4-1.6,0.7-3.2,0.9-4.7c0.2-1.5,0.3-3,0.4-4.4h0v-0.7c0-1.5-0.1-2.9-0.3-4.2c-0.2-1.3-0.5-2.5-1-3.7l0,0
		c-0.3-0.6-0.6-1.3-0.9-1.8c-0.3-0.6-0.7-1.1-1.1-1.7l0,0c-0.4-0.5-0.8-0.9-1.3-1.3c-0.5-0.4-1.1-0.8-1.7-1.2l0,0
		c-0.4-0.2-0.9-0.5-1.5-0.7c-0.6-0.3-1.4-0.5-2.2-0.8c-0.8-0.2-1.6-0.3-2.2-0.4c-0.7-0.1-1.3-0.2-1.9-0.2l0,0v0h0v0
		c-1.8,0.1-3.7,0.4-5.7,0.9c-2,0.5-4,1.2-6.2,2.1v0c-1.8,0.8-3.6,1.7-5.4,2.7c-1.8,1-3.7,2.2-5.7,3.6h0c-6.3,4.3-12.9,10-19.8,17.1
		l0,0c-1.9,2-3.8,4-5.6,6c-1.8,1.9-3.6,4-5.4,6.2c-0.4,1.4-0.8,2.8-1.3,4.2c-0.5,1.5-1,3-1.5,4.6l0,0c-1.4,4.2-2.9,8.4-4.5,12.7
		c-1.6,4.2-3.3,8.5-5.1,12.9v0c-3.4,8-7.1,15.9-11,23.8c-3.9,7.9-8.1,15.7-12.5,23.3c-2.4,4.2-4.8,8.2-7.1,11.9
		c-2.3,3.7-4.6,7.2-6.8,10.5l0,0c-1.4,2.1-2.9,4-4.2,5.8c-1.3,1.8-2.6,3.4-3.9,4.9l0,0c-1.6,2-3.2,3.6-4.7,5
		c-0.5,0.5-0.9,0.9-1.4,1.3c-0.5,0.4-0.9,0.8-1.4,1.1l0,0c-0.7,0.5-1.3,0.9-1.9,1.2c-0.6,0.3-1.3,0.6-1.8,0.8l-0.1,0
		c-0.2,0-0.4,0.1-0.5,0.1c-0.2,0-0.4,0-0.6,0c-0.3,0-0.7,0-1-0.1c-0.3-0.1-0.7-0.2-1-0.4l0,0c-0.5-0.3-1-0.7-1.3-1.2
		c-0.3-0.5-0.6-1-0.8-1.6c-0.2-0.4-0.3-0.8-0.4-1.2c-0.1-0.4-0.1-0.9-0.2-1.3l0-0.1v-0.8c0-0.5,0-1,0.1-1.5c0-0.5,0.1-1,0.2-1.6
		c0.2-1,0.4-2.2,0.7-3.3c0.3-1.2,0.6-2.4,1-3.7l0,0c0.6-1.9,1.2-3.9,2-6.1c0.8-2.2,1.7-4.5,2.7-7v0c1.6-3.8,3.4-7.8,5.4-12
		c1.9-4.1,4.1-8.4,6.5-12.9c4.4-8.3,9-16.4,13.8-24.2c4.8-7.8,9.8-15.3,15-22.5v0c3.5-4.9,7.1-9.5,10.5-13.9
		c3.4-4.2,6.8-8.3,10.2-12.1c0.9-2.9,1.8-5.7,2.5-8.4c0.8-2.8,1.5-5.6,2-8.2v0c0.5-2.3,1-4.5,1.4-6.6v0c0.4-2.1,0.7-4.1,0.9-6.1h0
		c0.2-1.6,0.3-3.2,0.4-4.6c0.5-8.1,1.3-13.8,2.3-21.8c0.6,0.9,1.1,1.9,1.6,2.9l0,0c0.5,1.2,1,2.4,1.4,3.7l0,0
		c0.3,1.1,0.5,2.3,0.7,3.5c0.2,1.2,0.4,2.5,0.4,3.7h0c0.1,0.8,0.1,1.6,0.2,2.5v0c0,0.9,0.1,1.8,0.1,2.7c0,1.3,0,2.8-0.1,4.3
		c-0.1,1.5-0.2,3-0.4,4.6c-0.2,2.1-0.5,4.3-0.9,6.6v0c-0.4,2.2-0.8,4.6-1.3,7l0,0c-0.2,0.9-0.4,1.8-0.6,2.7c1-1,2-2,3-3l0,0
		c3.6-3.5,7.2-6.7,10.7-9.5c3.5-2.9,6.9-5.4,10.2-7.5l0,0c2.1-1.3,4.1-2.5,6.1-3.6c2-1.1,4-2,5.9-2.8c2.4-1,4.7-1.8,7-2.3
		c2.3-0.6,4.6-0.9,6.8-1l0.1,0h0.2c0.8,0,1.7,0.1,2.6,0.2c0.9,0.1,1.9,0.3,3,0.5l0.1,0c1,0.3,2,0.6,2.9,1c0.9,0.4,1.8,0.8,2.6,1.3
		l0,0c0.9,0.5,1.7,1.1,2.5,1.8c0.8,0.7,1.5,1.4,2.2,2.2l0,0.1c0.6,0.7,1.1,1.5,1.6,2.4c0.5,0.9,0.9,1.8,1.3,2.7
		c0.3,0.8,0.6,1.6,0.9,2.6c0.2,0.9,0.5,1.9,0.6,3l0,0c0.1,0.9,0.2,1.8,0.3,2.6c0.1,0.9,0.1,1.7,0.1,2.4v0.5c0,1.6-0.1,3.4-0.3,5.2
		c-0.2,1.8-0.5,3.6-0.9,5.6v0c-0.7,3.2-1.6,6.5-2.7,9.8c-1.1,3.3-2.5,6.7-4.1,10.2l0,0c-1.5,3.1-3.1,6.2-4.9,9.2
		c-1.7,3-3.6,5.9-5.7,8.9v0c-4.2,5.9-8.7,11.3-13.6,16.1c-4.9,4.9-10.1,9.3-15.7,13.1l0,0c-3.1,2.1-3.2,2.1-6.3,3.7L295.5,168.2z
		 M280.5,236.8c8.4,3.2,26-1.6,44.9-6.7c29-7.9,61.2-16.6,75.8-0.4l-5,4.5c-11.8-13.1-41.9-4.9-69,2.4c-20,5.4-38.6,10.4-49.1,6.5
		c-14.7-5.5-7.9-25.7-3.5-36.5l0,0c0.3-0.7,0.7-1.5,1.1-2.5v0c0.3-0.7,0.8-1.7,1.3-2.8l0,0l1.2-2.3c0.4-0.9,0.9-1.8,1.4-2.8l0,0
		l2.6-5v0c1.1-2.1,2-4,2.8-5.6c0.8-1.6,1.4-3,1.8-4.2h0c0.3-0.8,0.6-1.6,0.8-2.4c0.2-0.8,0.4-1.5,0.5-2.1v0l0-0.2
		c-2,0.5-4,0.9-6,1.3c-2.6,0.4-5.2,0.7-7.8,0.7l-0.2,0.1l-0.5,0c-0.7,0-1.3-0.1-1.9-0.2c-0.6-0.1-1.2-0.2-1.7-0.4l0,0
		c-0.4-0.1-0.7-0.3-1.1-0.4c-0.3-0.2-0.6-0.3-1-0.6l-0.1,0c-0.5-0.3-0.9-0.7-1.2-1.2l0,0c-0.3-0.4-0.6-0.9-0.7-1.4
		c-0.1-0.3-0.2-0.5-0.2-0.7v0c-0.1-0.3-0.1-0.6-0.1-0.9c0-0.3,0-0.5,0.1-0.8v0c0-0.2,0.1-0.5,0.2-0.7c0.1-0.4,0.3-0.8,0.5-1.2l0,0
		c0.2-0.4,0.4-0.7,0.7-1.1l0,0c0.4-0.5,0.8-1,1.3-1.4l0,0c0.5-0.4,1-0.8,1.6-1.2h0c1.4-0.9,3.1-1.6,4.9-2c1.8-0.4,3.8-0.6,5.9-0.6
		c0.2,0,0.5,0,1,0c0.4,0,0.7,0,1,0h0c1.3,0.1,2.5,0.3,3.6,0.5c1.1,0.3,2.1,0.6,3,1v0c1,0.4,1.9,1,2.7,1.7h0c1.9,1.6,3.8,5.9,3.8,8.6
		c0,0.5,0,1-0.1,1.7h0c-0.1,0.5-0.1,1.1-0.2,1.7h0c-0.2,0.9-0.4,1.9-0.7,3c-0.3,1-0.7,2-1.1,3.2l0,0c-0.6,1.5-1.4,3.2-2.3,5v0
		c-0.8,1.7-1.8,3.5-3,5.4h0l-1.4,2.4l0,0l-1.4,2.4l0,0c-0.6,1-1.1,1.9-1.6,2.6c-0.5,0.8-0.9,1.5-1.2,2l0,0
		C279.5,211.4,271.5,233.4,280.5,236.8z M273.7,172.7c2.4,0,4.8-0.3,7.2-0.7c1.1-0.2,2.2-0.4,3.3-0.7l0,0c-0.7-0.2-1.5-0.3-2.4-0.4
		l0,0l-1.1-0.1l-1.2-0.1v0h-0.6c-0.3,0-0.6,0-0.9,0v0c-0.3,0-0.6,0-0.8,0.1h0c-0.8,0.1-1.6,0.3-2.2,0.5c-0.6,0.2-1.2,0.4-1.7,0.7
		l0,0c-0.3,0.2-0.5,0.3-0.7,0.5h0l0,0c0.1,0,0.2,0.1,0.4,0.1v0C273.1,172.6,273.4,172.7,273.7,172.7z"/>
</g>
<g id="Layer_2">
	<path class="st3" d="M375.1,51.6c4.6,2.2,6.4,8,4.1,12.9c-2.4,4.9-8,7.1-12.6,4.9c-4.6-2.2-6.4-8-4.1-12.9
		C364.8,51.6,370.5,49.4,375.1,51.6"/>
</g>
</svg>
