<?xml version="1.0" encoding="UTF-8" standalone="no"?> <svg width="64" height="64" viewBox="0 0 64 64" fill="none" xmlns="http://www.w3.org/2000/svg">
<path d="M27 43H19C17.9391 43 16.9217 42.5786 16.1716 41.8284C15.4214 41.0783 15 40.0609 15 39V53C15 54.0609 15.4214 55.0783 16.1716 55.8284C16.9217 56.5786 17.9391 57 19 57H27C28.0609 57 29.0783 56.5786 29.8284 55.8284C30.5786 55.0783 31 54.0609 31 53V39C31 40.0609 30.5786 41.0783 29.8284 41.8284C29.0783 42.5786 28.0609 43 27 43Z" fill="#BDDBFF"/>
<path d="M35 37V55C34.9984 55.5299 34.7872 56.0377 34.4125 56.4125C34.0377 56.7872 33.5299 56.9984 33 57H27C28.0609 57 29.0783 56.5786 29.8284 55.8284C30.5786 55.0783 31 54.0609 31 53V37H35Z" fill="#BDDBFF"/>
<path d="M15 39V53C15 54.0609 15.4214 55.0783 16.1716 55.8284C16.9217 56.5786 17.9391 57 19 57H5C4.47005 56.9984 3.96227 56.7872 3.58753 56.4125C3.2128 56.0377 3.00158 55.5299 3 55V37H15V39Z" fill="#BDDBFF"/>
<path d="M19 37H15V39C15 40.0609 15.4214 41.0783 16.1716 41.8284C16.9217 42.5786 17.9391 43 19 43H27C28.0609 43 29.0783 42.5786 29.8284 41.8284C30.5786 41.0783 31 40.0609 31 39V37H19Z" fill="#BDDBFF"/>
<path d="M33 33H5C4.47005 33.0016 3.96227 33.2128 3.58753 33.5875C3.2128 33.9623 3.00158 34.4701 3 35V37H35V35C34.9984 34.4701 34.7872 33.9623 34.4125 33.5875C34.0377 33.2128 33.5299 33.0016 33 33V33Z" fill="#BDDBFF"/>
<path d="M27 29V33H23V25C23.5255 24.9993 24.0459 25.1024 24.5315 25.3031C25.0171 25.5039 25.4583 25.7985 25.8299 26.1701C26.2015 26.5417 26.4961 26.9829 26.6969 27.4685C26.8976 27.9541 27.0007 28.4745 27 29V29Z" fill="#BDDBFF"/>
<path d="M19 25H15V29H19H23V25H19Z" fill="#BDDBFF"/>
<path d="M15 29V33H11V29C10.9993 28.4745 11.1024 27.9541 11.3031 27.4685C11.5039 26.9829 11.7985 26.5417 12.1701 26.1701C12.5417 25.7985 12.9829 25.5039 13.4685 25.3031C13.9541 25.1024 14.4745 24.9993 15 25V29Z" fill="#BDDBFF"/>
<path d="M55 19H39V27H55V19Z" fill="#BDDBFF"/>
<path d="M52 3L61 13H54C53.4701 12.9984 52.9623 12.7872 52.5875 12.4125C52.2128 12.0377 52.0016 11.5299 52 11V3Z" fill="#BDDBFF"/>
<path d="M6 44H8V46H10V44H12V42H6V44Z" fill="#3D9AE2"/>
<path d="M61.74 12.33L52.74 2.33C52.6465 2.22641 52.5324 2.14353 52.4049 2.0867C52.2775 2.02986 52.1395 2.00033 52 2H23C21.6739 2 20.4021 2.52678 19.4645 3.46447C18.5268 4.40215 18 5.67392 18 7V24H15C13.6739 24 12.4021 24.5268 11.4645 25.4645C10.5268 26.4021 10 27.6739 10 29V32H5C4.20508 32.0024 3.4434 32.3192 2.8813 32.8813C2.31921 33.4434 2.00237 34.2051 2 35V55C2.00237 55.7949 2.31921 56.5566 2.8813 57.1187C3.4434 57.6808 4.20508 57.9976 5 58H18.1C18.3335 59.1279 18.9479 60.1411 19.8402 60.8695C20.7325 61.5979 21.8482 61.9971 23 62H57C58.3261 62 59.5979 61.4732 60.5355 60.5355C61.4732 59.5979 62 58.3261 62 57V13C62.0022 12.7516 61.9092 12.5119 61.74 12.33V12.33ZM53 5.61L58.75 12H54C53.7348 12 53.4804 11.8946 53.2929 11.7071C53.1054 11.5196 53 11.2652 53 11V5.61ZM16 26H22V28H16V26ZM22 30V32H20V30H22ZM16 30H18V32H16V30ZM12 29C12.0017 28.3798 12.1947 27.7753 12.5526 27.2688C12.9105 26.7624 13.416 26.3786 14 26.17V32H12V29ZM4 35C4 34.7348 4.10536 34.4804 4.29289 34.2929C4.48043 34.1054 4.73478 34 5 34H33C33.2652 34 33.5196 34.1054 33.7071 34.2929C33.8946 34.4804 34 34.7348 34 35V36H4V35ZM24 32V26.17C24.584 26.3786 25.0895 26.7624 25.4474 27.2688C25.8053 27.7753 25.9983 28.3798 26 29V32H24ZM34 38V55C34 55.2652 33.8946 55.5196 33.7071 55.7071C33.5196 55.8946 33.2652 56 33 56H30.97C31.6348 55.141 31.997 54.0862 32 53V38H34ZM30 38V39C29.9976 39.7949 29.6808 40.5566 29.1187 41.1187C28.5566 41.6808 27.7949 41.9976 27 42H19C18.2051 41.9976 17.4434 41.6808 16.8813 41.1187C16.3192 40.5566 16.0024 39.7949 16 39V38H30ZM5 56C4.73478 56 4.48043 55.8946 4.29289 55.7071C4.10536 55.5196 4 55.2652 4 55V38H14V53C14.003 54.0862 14.3652 55.141 15.03 56H5ZM19 56C18.2051 55.9976 17.4434 55.6808 16.8813 55.1187C16.3192 54.5566 16.0024 53.7949 16 53V42.97C16.859 43.6348 17.9138 43.997 19 44H27C28.0862 43.997 29.141 43.6348 30 42.97V53C29.9976 53.7949 29.6808 54.5566 29.1187 55.1187C28.5566 55.6808 27.7949 55.9976 27 56H19ZM60 57C59.9976 57.7949 59.6808 58.5566 59.1187 59.1187C58.5566 59.6808 57.7949 59.9976 57 60H23C22.3814 59.9968 21.7788 59.8031 21.2742 59.4452C20.7696 59.0874 20.3876 58.5827 20.18 58H33C33.7949 57.9976 34.5566 57.6808 35.1187 57.1187C35.6808 56.5566 35.9976 55.7949 36 55V35C35.9976 34.2051 35.6808 33.4434 35.1187 32.8813C34.5566 32.3192 33.7949 32.0024 33 32H28V29C28 27.6739 27.4732 26.4021 26.5355 25.4645C25.5979 24.5268 24.3261 24 23 24H20V7C20.0024 6.20508 20.3192 5.4434 20.8813 4.8813C21.4434 4.31921 22.2051 4.00237 23 4H51V11C51.0024 11.7949 51.3192 12.5566 51.8813 13.1187C52.4434 13.6808 53.2051 13.9976 54 14H60V57Z" fill="#3D9AE2"/>
<path d="M36 8H24V10H36V8Z" fill="#3D9AE2"/>
<path d="M42 8H38V10H42V8Z" fill="#3D9AE2"/>
<path d="M42 12H24V14H42V12Z" fill="#3D9AE2"/>
<path d="M55 18H39C38.7348 18 38.4804 18.1054 38.2929 18.2929C38.1054 18.4804 38 18.7348 38 19V27C38 27.2652 38.1054 27.5196 38.2929 27.7071C38.4804 27.8946 38.7348 28 39 28H55C55.2652 28 55.5196 27.8946 55.7071 27.7071C55.8946 27.5196 56 27.2652 56 27V19C56 18.7348 55.8946 18.4804 55.7071 18.2929C55.5196 18.1054 55.2652 18 55 18ZM54 26H40V20H54V26Z" fill="#3D9AE2"/>
<path d="M36 18H28V20H36V18Z" fill="#3D9AE2"/>
<path d="M26 18H24V20H26V18Z" fill="#3D9AE2"/>
<path d="M36 22H28V24H36V22Z" fill="#3D9AE2"/>
<path d="M56 32H42V34H56V32Z" fill="#3D9AE2"/>
<path d="M40 32H38V34H40V32Z" fill="#3D9AE2"/>
<path d="M56 36H38V38H56V36Z" fill="#3D9AE2"/>
<path d="M56 40H38V42H56V40Z" fill="#3D9AE2"/>
<path d="M56 44H38V46H56V44Z" fill="#3D9AE2"/>
<path d="M56 48H38V50H56V48Z" fill="#3D9AE2"/>
<path d="M56 52H38V54H56V52Z" fill="#3D9AE2"/>
</svg>
