<?xml version="1.0" encoding="UTF-8" standalone="no"?> <svg width="512" height="512" viewBox="0 0 512 512" fill="none" xmlns="http://www.w3.org/2000/svg">
<path d="M284.438 153.344L260.438 137.344C259.564 136.755 258.582 136.344 257.549 136.135C256.516 135.926 255.451 135.923 254.417 136.127C253.383 136.331 252.399 136.738 251.522 137.323C250.646 137.908 249.893 138.661 249.308 139.538C248.724 140.415 248.318 141.399 248.115 142.434C247.911 143.468 247.915 144.532 248.124 145.566C248.333 146.599 248.745 147.58 249.335 148.454C249.925 149.327 250.682 150.076 251.562 150.656L253.578 152H203.313L197.657 146.343C196.157 144.843 194.122 144 192 144C189.878 144 187.843 144.843 186.343 146.343C184.843 147.843 184 149.878 184 152C184 154.122 184.843 156.157 186.343 157.657L188.686 160L186.343 162.343C184.843 163.843 184 165.878 184 168C184 170.122 184.843 172.157 186.343 173.657C187.843 175.157 189.878 176 192 176C194.122 176 196.157 175.157 197.657 173.657L203.314 168H253.578L251.562 169.344C250.682 169.924 249.925 170.672 249.335 171.546C248.745 172.42 248.333 173.401 248.124 174.434C247.915 175.468 247.911 176.532 248.115 177.566C248.318 178.601 248.724 179.585 249.308 180.462C249.893 181.339 250.646 182.092 251.522 182.677C252.399 183.262 253.383 183.669 254.417 183.873C255.451 184.076 256.516 184.074 257.549 183.865C258.582 183.656 259.564 183.245 260.438 182.656L284.438 166.656C285.534 165.925 286.432 164.936 287.053 163.775C287.675 162.613 288 161.317 288 160C288 158.683 287.675 157.387 287.053 156.225C286.432 155.064 285.534 154.075 284.438 153.344Z" fill="#BBBAB6"/>
<path d="M224 200C221.878 200 219.843 199.157 218.343 197.657C216.843 196.157 216 194.122 216 192V120C216 117.878 216.843 115.843 218.343 114.343C219.843 112.843 221.878 112 224 112C226.122 112 228.157 112.843 229.657 114.343C231.157 115.843 232 117.878 232 120V192C232 194.122 231.157 196.157 229.657 197.657C228.157 199.157 226.122 200 224 200Z" fill="#DCDBD6"/>
<path d="M376 136L368 448H408L400 136H376Z" fill="#CDCCC8"/>
<path d="M387.51 144.12L389.28 147.8L374.93 177.62L375.96 137.64L379.2 138.08L379.88 136L389.28 142.83L387.51 144.12Z" fill="#BBBAB6"/>
<path d="M389.28 147.8L391.05 144.12L389.28 142.83L398.69 136L399.36 138.08L400.05 137.99L400.92 172L389.28 147.8Z" fill="#BBBAB6"/>
<path d="M312 240L344 280H312V240Z" fill="#6699CE"/>
<path d="M400.92 172L389.28 147.8L374.93 177.62L375.96 137.64L379.2 138.08L379.88 136L389.28 142.83L398.69 136L399.36 138.08L400.05 137.99L400.92 172Z" fill="#BBBAB6"/>
<path d="M312 448H136V240L224 192L312 240V448Z" fill="#812622"/>
<path d="M280 352H168V448H280V352Z" fill="#932C27"/>
<path d="M136 448H32V280L136 240V448Z" fill="#932C27"/>
<path d="M224 192H136L48 240L24 280H112L136 240L224 192Z" fill="#5B89B9"/>
<path d="M416 448H392L384 416H336L328 448H304V416L296.851 387.4C296.286 385.14 296 382.819 296 380.489C296.001 372.933 299.003 365.687 304.346 360.344C309.689 355.001 316.936 352 324.492 352H416V344H432L440 352L457.038 363.359C459.18 364.787 460.936 366.721 462.15 368.99C463.365 371.259 464 373.793 464 376.367V376.367C464 380.513 462.353 384.489 459.421 387.421C456.489 390.353 452.513 392 448.367 392H432L416 416V448Z" fill="#A3612D"/>
<path d="M320 408H312C305.637 407.993 299.537 405.462 295.038 400.962C290.538 396.463 288.007 390.363 288 384V380.492C288 378.37 288.843 376.335 290.343 374.835C291.843 373.335 293.878 372.492 296 372.492C298.122 372.492 300.157 373.335 301.657 374.835C303.157 376.335 304 378.37 304 380.492V384C304.002 386.121 304.846 388.154 306.346 389.654C307.846 391.154 309.879 391.998 312 392H320C322.122 392 324.157 392.843 325.657 394.343C327.157 395.843 328 397.878 328 400C328 402.122 327.157 404.157 325.657 405.657C324.157 407.157 322.122 408 320 408Z" fill="#915628"/>
<path d="M240 248H208V280H240V248Z" fill="#932C27"/>
<path d="M480 408C477.878 408 475.843 408.843 474.343 410.343C472.843 411.843 472 413.878 472 416H456C456 413.878 455.157 411.843 453.657 410.343C452.157 408.843 450.122 408 448 408C445.878 408 443.843 408.843 442.343 410.343C440.843 411.843 440 413.878 440 416V448C440 450.122 440.843 452.157 442.343 453.657C443.843 455.157 445.878 456 448 456C450.122 456 452.157 455.157 453.657 453.657C455.157 452.157 456 450.122 456 448V432H472V448C472 450.122 472.843 452.157 474.343 453.657C475.843 455.157 477.878 456 480 456C482.122 456 484.157 455.157 485.657 453.657C487.157 452.157 488 450.122 488 448V416C488 413.878 487.157 411.843 485.657 410.343C484.157 408.843 482.122 408 480 408Z" fill="#CDCCC8"/>
<path d="M80 416H128V448H80C75.7565 448 71.6869 446.314 68.6863 443.314C65.6857 440.313 64 436.243 64 432C64 427.757 65.6857 423.687 68.6863 420.686C71.6869 417.686 75.7565 416 80 416Z" fill="#915628"/>
<path d="M128 448C136.837 448 144 440.837 144 432C144 423.163 136.837 416 128 416C119.163 416 112 423.163 112 432C112 440.837 119.163 448 128 448Z" fill="#E6AF89"/>
<path d="M88 384H120V416H88C83.7565 416 79.6869 414.314 76.6863 411.314C73.6857 408.313 72 404.243 72 400C72 395.757 73.6857 391.687 76.6863 388.686C79.6869 385.686 83.7565 384 88 384Z" fill="#A3612D"/>
<path d="M120 416C128.837 416 136 408.837 136 400C136 391.163 128.837 384 120 384C111.163 384 104 391.163 104 400C104 408.837 111.163 416 120 416Z" fill="#E6AF89"/>
<path d="M48 240H136L112 280H24L48 240Z" fill="#6699CE"/>
<path d="M222.772 128C227.789 128 232.679 126.422 236.748 123.489C240.818 120.555 243.862 116.416 245.448 111.656L248 104H252C255.183 104 258.235 102.736 260.485 100.485C262.736 98.2348 264 95.1826 264 92C264 88.8174 262.736 85.7652 260.485 83.5147C258.235 81.2643 255.183 80 252 80V80C244.317 80 236.948 83.0522 231.515 88.485L224 96H192L201.394 114.787C203.379 118.757 206.43 122.097 210.206 124.43C213.982 126.764 218.333 128 222.772 128Z" fill="#DCDBD6"/>
<path d="M488 121.16L473.167 75.509L444.531 90.931L455.768 125.515L488 121.16Z" fill="#932C27"/>
<path d="M395.094 120L398.687 131.056L400.457 129.77L403.408 132.59L455.768 125.515L444.531 90.931L398.012 115.984L397.282 120H395.094Z" fill="#DCDBD6"/>
<path d="M383.47 120H395.094L394.418 117.919L398.012 115.984L407.464 64H371.1L380.552 115.984L384.146 117.919L383.47 120Z" fill="#DCDBD6"/>
<path d="M413.282 32H365.282L371.1 64H407.464L413.282 32Z" fill="#932C27"/>
<path d="M305.397 75.509L290.564 121.16L322.796 125.515L334.033 90.931L305.397 75.509Z" fill="#932C27"/>
<path d="M379.878 131.056L383.47 120H381.282L380.552 115.984L334.033 90.931L322.796 125.515L375.156 132.59L378.108 129.77L379.878 131.056Z" fill="#DCDBD6"/>
<path d="M389.282 137.889L379.878 131.056L379.202 133.136L375.156 132.59L336.955 169.09L366.373 190.464L389.282 142.853L387.512 139.174L389.282 137.889Z" fill="#DCDBD6"/>
<path d="M313.438 191.559L352.271 219.772L366.373 190.464L336.955 169.09L313.438 191.559Z" fill="#932C27"/>
<path d="M412.191 190.464L426.293 219.772L465.126 191.559L441.61 169.09L412.191 190.464Z" fill="#932C27"/>
<path d="M403.408 132.59L399.363 133.136L398.687 131.056L389.282 137.889L391.052 139.174L389.282 142.853L412.191 190.464L441.61 169.09L403.408 132.59Z" fill="#DCDBD6"/>
<path d="M389.282 144C398.119 144 405.282 136.837 405.282 128C405.282 119.163 398.119 112 389.282 112C380.445 112 373.282 119.163 373.282 128C373.282 136.837 380.445 144 389.282 144Z" fill="#BBBAB6"/>
<path d="M280 352H272V440H280V352Z" fill="#CDCCC8"/>
<path d="M280 445.171V352C280 349.878 279.157 347.843 277.657 346.343C276.157 344.843 274.122 344 272 344H176C173.878 344 171.843 344.843 170.343 346.343C168.843 347.843 168 349.878 168 352V448C168 450.122 168.843 452.157 170.343 453.657C171.843 455.157 173.878 456 176 456H272C274.122 456 276.157 455.157 277.657 453.657C279.157 452.157 280 450.122 280 448V445.172V445.171ZM184 371.314L212.686 400L184 428.686V371.314ZM195.314 360H252.686L224 388.686L195.314 360ZM224 411.314L252.686 440H195.314L224 411.314ZM235.314 400L264 371.314V428.686L235.314 400Z" fill="#DCDBD6"/>
<path d="M288 328H160V352H288V328Z" fill="#EAE9E4"/>
<path d="M488 448H24V480H488V448Z" fill="#768753"/>
<path d="M280 352H168V360H280V352Z" fill="#BBBAB6"/>
</svg>
