<?xml version="1.0" encoding="UTF-8" standalone="no"?> <svg xmlns="http://www.w3.org/2000/svg" xmlns:xlink="http://www.w3.org/1999/xlink" width="512" height="512" viewBox="0 0 512 512">  <defs>    <linearGradient id="a" data-name="New Gradient Swatch 1" x1="-2.308" y1="482.308" x2="489.1" y2="-9.1" gradientUnits="userSpaceOnUse">      <stop offset="0" stop-color="#003f8a"/>      <stop offset="0.518" stop-color="#00d7df"/>      <stop offset="1" stop-color="#006df0"/>    </linearGradient>    <linearGradient id="b" x1="-80.308" y1="404.308" x2="411.1" y2="-87.1" xlink:href="#a"/>    <linearGradient id="c" x1="67.693" y1="552.308" x2="559.1" y2="60.901" xlink:href="#a"/>    <linearGradient id="d" x1="-82.308" y1="402.308" x2="409.1" y2="-89.1" xlink:href="#a"/>    <linearGradient id="e" x1="57.692" y1="542.308" x2="549.1" y2="50.9" xlink:href="#a"/>    <linearGradient id="f" x1="-24.558" y1="460.057" x2="466.85" y2="-31.35" xlink:href="#a"/>    <linearGradient id="g" x1="-0.056" y1="484.559" x2="491.351" y2="-6.848" xlink:href="#a"/>  </defs>    <g>    <path d="M476,40H36A28.031,28.031,0,0,0,8,68V380a28.031,28.031,0,0,0,28,28H196.18l-9.6,24H152a8,8,0,0,0-8,8v24a8,8,0,0,0,8,8H360a8,8,0,0,0,8-8V440a8,8,0,0,0-8-8H325.42l-9.6-24H476a28.031,28.031,0,0,0,28-28V68A28.031,28.031,0,0,0,476,40ZM352,448v8H160v-8ZM203.82,432l9.6-24h85.16l9.6,24ZM488,380a12.01,12.01,0,0,1-12,12H36a12.01,12.01,0,0,1-12-12V368H488Zm0-28H24V68A12.01,12.01,0,0,1,36,56H476a12.01,12.01,0,0,1,12,12Z" fill="url(#a)"/>    <path d="M216,128H160V112a8,8,0,0,0-16,0v16H88a8,8,0,0,0,0,16h32.28c1.514,21.911,9.185,41.754,20.927,57.03C130.713,210.438,117.87,216,104,216a8,8,0,0,0,0,16c18,0,34.62-7.169,48-19.249,13.38,12.08,30,19.249,48,19.249a8,8,0,0,0,0-16c-13.87,0-26.713-5.562-37.207-14.97,11.742-15.276,19.413-35.119,20.927-57.03H216a8,8,0,0,0,0-16Zm-64,60.831A90.382,90.382,0,0,1,136.321,144h31.358A90.382,90.382,0,0,1,152,188.831Z" fill="url(#b)"/>    <path d="M367.534,181.309a8,8,0,0,0-15.068,0l-40,112a8,8,0,0,0,15.068,5.382L339.924,264h40.152l12.39,34.691a8,8,0,0,0,15.068-5.382ZM345.638,248,360,207.786,374.362,248Z" fill="url(#c)"/>    <path d="M220,72H84a28.032,28.032,0,0,0-28,28V236a28.032,28.032,0,0,0,28,28H220a28.032,28.032,0,0,0,28-28V100A28.032,28.032,0,0,0,220,72Zm12,164a12.013,12.013,0,0,1-12,12H84a12.013,12.013,0,0,1-12-12V100A12.013,12.013,0,0,1,84,88H220a12.013,12.013,0,0,1,12,12Z" fill="url(#d)"/>    <path d="M428,144H292a28.032,28.032,0,0,0-28,28V308a28.032,28.032,0,0,0,28,28H428a28.032,28.032,0,0,0,28-28V172A28.032,28.032,0,0,0,428,144Zm12,164a12.013,12.013,0,0,1-12,12H292a12.013,12.013,0,0,1-12-12V172a12.013,12.013,0,0,1,12-12H428a12.013,12.013,0,0,1,12,12Z" fill="url(#e)"/>    <path d="M298.343,133.657a8,8,0,0,0,11.314-11.314L299.314,112H352v16a8,8,0,0,0,16,0V104a8,8,0,0,0-8-8H298.747l10.029-10.465a8,8,0,0,0-11.552-11.07l-23,24a8,8,0,0,0,.119,11.192Z" fill="url(#f)"/>    <path d="M237.78,309.54l-23,24a8.006,8.006,0,0,1-11.56-11.08L213.25,312H152a8,8,0,0,1-8-8V280a8,8,0,0,1,16,0v16h52.69l-10.35-10.34a8,8,0,0,1,11.32-11.32l24,24A8.018,8.018,0,0,1,237.78,309.54Z" fill="url(#g)"/>  </g></svg>