<?xml version="1.0" encoding="iso-8859-1"?>
<!-- Generator: Adobe Illustrator 23.1.1, SVG Export Plug-In . SVG Version: 6.00 Build 0)  -->
<svg version="1.1" id="_x31_-outline-expand" xmlns="http://www.w3.org/2000/svg" xmlns:xlink="http://www.w3.org/1999/xlink"
	 x="0px" y="0px" viewBox="0 0 64 64" style="enable-background:new 0 0 64 64;" xml:space="preserve">
<path style="fill:#62C4C3;" d="M17,20c0-2.762-2.238-5-5-5c-2.762,0-5,2.238-5,5c0,2.762,2.238,5,5,5C14.762,25,17,22.762,17,20
	L17,20z"/>
<path style="fill:#62C4C3;" d="M17,25H7c-2.209,0-4,1.791-4,4v7h4v13h10V36h4v-7C21,26.791,19.209,25,17,25L17,25z"/>
<path style="fill:#D36767;" d="M57,20c0-2.762-2.238-5-5-5c-2.762,0-5,2.238-5,5c0,2.762,2.238,5,5,5C54.762,25,57,22.762,57,20
	L57,20z"/>
<path style="fill:#D36767;" d="M57,25H47c-2.209,0-4,1.791-4,4v7h4v13h10V36h4v-7C61,26.791,59.209,25,57,25L57,25z"/>
<path style="fill:#EFBC2E;" d="M53,10.999h-2v-4c0-1.654-1.346-3-3-3H25v-2h23c2.757,0,5,2.243,5,5V10.999z"/>
<path style="fill:#EFBC2E;" d="M13,11.999h-2v-5c0-2.757,2.243-5,5-5h7v2h-7c-1.654,0-3,1.346-3,3V11.999z"/>
<polygon style="fill:#EFBC2E;" points="52,12.413 47.293,7.706 48.707,6.292 52,9.585 55.293,6.292 56.707,7.706 "/>
<path style="fill:#EFBC2E;" d="M35,61.999H16c-2.757,0-5-2.243-5-5v-4h2v4c0,1.654,1.346,3,3,3h19V61.999z"/>
<rect x="37" y="59.999" style="fill:#EFBC2E;" width="2" height="2"/>
<path style="fill:#EFBC2E;" d="M48,61.999h-7v-2h7c1.654,0,3-1.346,3-3v-5h2v5C53,59.756,50.757,61.999,48,61.999z"/>
<polygon style="fill:#EFBC2E;" points="15.293,57.706 12,54.413 8.707,57.706 7.293,56.292 12,51.585 16.707,56.292 "/>
<rect x="11" y="36" style="fill:#42A5B2;" width="2" height="13"/>
<rect x="5" y="29" style="fill:#42A5B2;" width="2" height="7"/>
<rect x="17" y="29" style="fill:#42A5B2;" width="2" height="7"/>
<rect x="51" y="36" style="fill:#AA494A;" width="2" height="13"/>
<rect x="45" y="29" style="fill:#AA494A;" width="2" height="7"/>
<rect x="57" y="29" style="fill:#AA494A;" width="2" height="7"/>
</svg>
