<?xml version="1.0" encoding="utf-8"?>
<!-- Generator: Adobe Illustrator 18.0.0, SVG Export Plug-In . SVG Version: 6.00 Build 0)  -->
<!DOCTYPE svg PUBLIC "-//W3C//DTD SVG 1.1//EN" "http://www.w3.org/Graphics/SVG/1.1/DTD/svg11.dtd">
<svg version="1.1" id="Layer_1" xmlns="http://www.w3.org/2000/svg" xmlns:xlink="http://www.w3.org/1999/xlink" x="0px" y="0px"
	 viewBox="0 0 86.1 66.5" enable-background="new 0 0 86.1 66.5" xml:space="preserve">
<g>
	<polygon fill="none" points="11.6,52.2 5.9,57.1 80.3,57.1 74.8,52.2 73,52.2 77.7,56.3 8.5,56.3 13.3,52.2 	"/>
	<path fill="#4E4F50" d="M5.3,65.5h75.5c2.4,0,4.4-2,4.4-4.4c0-1.8-1.1-3.3-2.6-4l-6.4-5.7c2.6-0.3,4.7-2.5,4.7-5.2V6.3
		c0-2.9-2.3-5.2-5.2-5.2H10.5c-2.9,0-5.2,2.3-5.2,5.2v39.9c0,2.8,2.2,5,4.9,5.2l-6.6,5.7c-0.8,0.3-1.4,0.9-1.9,1.6l-0.1,0h0
		c-0.4,0.7-0.7,1.5-0.7,2.4C0.9,63.6,2.9,65.5,5.3,65.5z M7,62.6c-0.5,0-0.9-0.4-0.9-0.9c0-0.5,0.4-0.9,0.9-0.9
		c0.5,0,0.9,0.4,0.9,0.9C7.9,62.2,7.5,62.6,7,62.6z M10.5,62.6c-0.5,0-0.9-0.4-0.9-0.9c0-0.5,0.4-0.9,0.9-0.9c0.5,0,0.9,0.4,0.9,0.9
		C11.4,62.2,11,62.6,10.5,62.6z M14.2,62.6c-0.5,0-0.9-0.4-0.9-0.9c0-0.5,0.4-0.9,0.9-0.9c0.5,0,0.9,0.4,0.9,0.9
		C15.1,62.2,14.7,62.6,14.2,62.6z M46.2,62.6h-7.4c-0.5,0-0.9-0.4-0.9-0.9c0-0.5,0.4-0.9,0.9-0.9h7.4c0.5,0,0.9,0.4,0.9,0.9
		C47.1,62.2,46.7,62.6,46.2,62.6z M43.1,4.2c0.5,0,1,0.4,1,1c0,0.5-0.4,1-1,1c-0.5,0-1-0.4-1-1C42.1,4.6,42.5,4.2,43.1,4.2z
		 M10,43.6V8.9h66.1v34.7H10z M11.6,52.2h1.7l-4.8,4h69.2l-4.7-4h1.8l5.5,4.9H5.9L11.6,52.2z"/>
</g>
</svg>
