<?xml version="1.0" encoding="UTF-8" standalone="no"?> <svg width="64" height="64" viewBox="0 0 64 64" fill="none" xmlns="http://www.w3.org/2000/svg">
<path d="M47 50C45.3 50 44 51.3 44 53C44 54.6 45.3 56 47 56C48.7 56 50 54.6 50 53C50 51.3 48.7 50 47 50ZM47 54C46.5 54 46 53.5 46 53C46 52.5 46.5 52 47 52C47.5 52 48 52.5 48 53C48 53.5 47.5 54 47 54Z" fill="black"/>
<path d="M59.6 33.3C57.8 32.5 55.9 31.9 54 31.5V23C54 22.5 53.5 22 53 22H52V20.2C52 18.5 50.9 16.9 49.3 16.4L48.3 16.1C47.8 15.9 47.2 16.2 47 16.7C46.8 17.2 47.1 17.8 47.6 18L48.6 18.3C49.4 18.6 50 19.3 50 20.2V22H49C48.5 22 48 22.5 48 23V30.7C46.7 30.7 45.4 30.7 44 30.9L38 31.6V23.3C38 20.8 36.2 18.8 33.8 18.4L29.8 17.7C26.7 17.2 23.5 16.9 20.3 16.9H18.1C16.5 16.9 14.9 17.5 13.8 18.7C12.6 20 12 21.5 12 23.1V35H4C3.7 35 3.4 35.1 3.2 35.3C3 35.6 3 35.9 3 36.2L4 42.2C4 42.2 4 42.2 4 42.3C2.7 44.6 2 47.3 2 50.1C2 50.6 2.5 51.1 3 51.1H6C6.5 57.2 11.7 62.1 18 62.1C22.1 62.1 25.7 60.1 27.8 56.9L30.4 58.4C30.6 58.5 30.7 58.5 30.9 58.5C31.2 58.5 31.6 58.3 31.8 58C32.4 57 32.8 56 33.1 55H38.1C39 59 42.6 62 46.9 62C51.2 62 54.8 59 55.7 55H57.3C58.7 55 59.9 54 60.2 52.6L61.5 46.8C61.8 45.7 61.9 44.5 61.9 43.3V37C62 35.4 61.1 33.9 59.6 33.3ZM20 25H22V34.5C21.3 34.3 20.7 34.2 20 34.1V25ZM8 50C8 49.7 8 49.3 8 49H8.9C9.5 49 9.9 49.5 9.9 50C9.9 50.5 9.5 51 8.9 51H8C8 50.7 8 50.3 8 50ZM18 43C21.9 43 25 46.1 25 50C25 53.9 21.9 57 18 57C14.1 57 11 53.9 11 50C11 46.1 14.1 43 18 43ZM12.2 41.9C12.7 41.5 13.3 41.2 13.9 40.9L14.3 41.6C14.6 42.1 14.4 42.7 13.9 43C13.7 43.1 13.6 43.1 13.4 43.1C13 43.1 12.7 42.9 12.5 42.6L12.2 41.9ZM17 40.9V40C17.3 40 17.7 40 18 40C18.3 40 18.7 40 19 40V40.9C19 41.4 18.5 41.9 18 41.9C17.5 41.9 17 41.5 17 40.9ZM21.7 41.6L22.1 40.9C22.7 41.2 23.3 41.5 23.8 41.9L23.4 42.6C23.2 42.9 22.9 43.1 22.5 43.1C22.3 43.1 22.2 43 22 43C21.6 42.7 21.4 42.1 21.7 41.6ZM25.4 44.6L26.1 44.2C26.5 44.7 26.8 45.3 27.1 45.9L26.4 46.3C26.2 46.4 26.1 46.4 25.9 46.4C25.6 46.4 25.2 46.2 25 45.9C24.7 45.5 24.9 44.9 25.4 44.6ZM11 46C10.8 46.3 10.5 46.5 10.1 46.5C9.9 46.5 9.8 46.5 9.6 46.4L8.9 46C9.2 45.4 9.5 44.8 9.9 44.3L10.6 44.7C11.1 44.9 11.3 45.5 11 46ZM10.6 55.4L9.9 55.8C9.5 55.3 9.2 54.7 8.9 54.1L9.6 53.7C10.1 53.4 10.7 53.6 11 54.1C11.3 54.5 11.1 55.1 10.6 55.4ZM14.3 58.4L13.9 59.1C13.3 58.8 12.7 58.5 12.2 58.1L12.6 57.4C12.9 56.9 13.5 56.8 14 57C14.4 57.3 14.6 57.9 14.3 58.4ZM19 60C18.7 60 18.3 60 18 60C17.7 60 17.3 60 17 60V59.1C17 58.6 17.5 58.1 18 58.1C18.5 58.1 19 58.6 19 59.1V60ZM22.1 59.1L21.7 58.4C21.4 57.9 21.6 57.3 22.1 57C22.6 56.7 23.2 56.9 23.5 57.4L23.9 58.1C23.3 58.5 22.7 58.8 22.1 59.1ZM26.1 55.8L25.4 55.4C24.9 55.1 24.8 54.5 25 54C25.3 53.5 25.9 53.3 26.4 53.6L27.1 54C26.8 54.7 26.5 55.3 26.1 55.8ZM28 51H27.1C26.5 51 26.1 50.5 26.1 50C26.1 49.5 26.5 49 27.1 49H28C28 49.3 28 49.7 28 50C28 50.3 28 50.7 28 51ZM30.6 56.1L28.9 55.1C29.6 53.5 30.1 51.8 30.1 50C30.1 43.4 24.7 38 18.1 38C11.8 38 6.7 42.8 6.1 49H4C4.5 41.7 10.6 36 18 36C25.7 36 32 42.3 32 50C32 52.1 31.5 54.2 30.6 56.1ZM32.2 42.6C30.4 39.3 27.6 36.6 24 35.2V33C24.2 33.1 24.4 33.2 24.6 33.2C28.7 34.8 32.1 38 34 41.9L32.2 42.6ZM36 32.6L32.9 29.5L33.7 28.7C34.1 28.3 34.1 27.7 33.7 27.3C33.3 26.9 32.7 26.9 32.3 27.3L29.3 30.3C28.9 30.7 28.9 31.3 29.3 31.7C29.5 31.9 29.8 32 30 32C30.2 32 30.5 31.9 30.7 31.7L31.5 30.9L36 35.4V41.3C33.8 36.8 30 33.3 25.4 31.4C25 31.2 24.5 31.1 24 30.9V25H36V32.6ZM43 35H48C48.5 35 49 35.5 49 36C49 36.5 48.5 37 48 37H43C42.5 37 42 36.5 42 36C42 35.5 42.5 35 43 35ZM43 39H48C48.5 39 49 39.5 49 40C49 40.5 48.5 41 48 41H43C42.5 41 42 40.5 42 40C42 39.5 42.5 39 43 39ZM47 58C44.2 58 42 55.8 42 53C42 50.2 44.2 48 47 48C49.8 48 52 50.2 52 53C52 55.8 49.8 58 47 58ZM56 53H55.9C55.4 53 55 52.6 54.9 52.1C54.4 48.1 51 45 46.9 45C42.8 45 39.4 48.1 38.9 52.1C39 52.7 38.5 53 38 53C37.5 53 37 52.5 37.1 51.9C37.7 46.8 41.9 43 47 43C52.1 43 56.4 46.8 56.9 51.9C57 52.4 56.6 52.9 56 53ZM60 42H56.4C56 42 55.6 41.7 55.4 41.3L54.7 39.3C54.6 39 54.6 38.7 54.8 38.4C55 38.1 55.3 38 55.6 38H60V42Z" fill="black"/>
<path d="M18 55C20.8 55 23 52.8 23 50C23 47.2 20.8 45 18 45C15.2 45 13 47.2 13 50C13 52.8 15.2 55 18 55ZM18 49C18.5 49 19 49.5 19 50C19 50.5 18.5 51 18 51C17.5 51 17 50.5 17 50C17 49.5 17.5 49 18 49Z" fill="black"/>
</svg>
